HIERARCHY
ROOT simHips
{
  OFFSET -152.561 99.9187 59.0565
  CHANNELS 6 Xposition Yposition Zposition Zrotation Xrotation Yrotation
  JOINT simSpine
  {
    OFFSET -0.000355721 21.3001 -0.016921
    CHANNELS 3 Zrotation Xrotation Yrotation
    JOINT simLeftArm
    {
      OFFSET 13.5181 21.3012 0
      CHANNELS 3 Zrotation Xrotation Yrotation
      JOINT simLeftForeArm
      {
        OFFSET 24.5783 0 0
        CHANNELS 3 Zrotation Xrotation Yrotation
        JOINT simLeftHand
        {
          OFFSET 24.5783 0 0
          CHANNELS 3 Zrotation Xrotation Yrotation
          End Site
          {
            OFFSET 7.32568 1.52588e-05 0.0169305
          }
        }
      }
    }
    JOINT simHead
    {
      OFFSET 0 27.4458 -0.00489235
      CHANNELS 3 Zrotation Xrotation Yrotation
      End Site
      {
        OFFSET 0 0 0
      }
    }
    JOINT simRightArm
    {
      OFFSET -13.5174 21.3012 0
      CHANNELS 3 Zrotation Xrotation Yrotation
      JOINT simRightForeArm
      {
        OFFSET -24.5783 0 0
        CHANNELS 3 Zrotation Xrotation Yrotation
        JOINT simRightHand
        {
          OFFSET -24.5783 0 0
          CHANNELS 3 Zrotation Xrotation Yrotation
          End Site
          {
            OFFSET -7.32568 1.52588e-05 0.0169305
          }
        }
      }
    }
  }
  JOINT simRightUpLeg
  {
    OFFSET -8.44614 -9.41038 0.835684
    CHANNELS 3 Zrotation Xrotation Yrotation
    JOINT simRightLeg
    {
      OFFSET 0 -40.9639 0
      CHANNELS 3 Zrotation Xrotation Yrotation
      JOINT simRightFoot
      {
        OFFSET 0 -40.9639 0
        CHANNELS 3 Zrotation Xrotation Yrotation
        End Site
        {
          OFFSET 0.50614 -9.67405 14.6709
        }
      }
    }
  }
  JOINT simLeftUpLeg
  {
    OFFSET 8.44614 -9.41038 0.835684
    CHANNELS 3 Zrotation Xrotation Yrotation
    JOINT simLeftLeg
    {
      OFFSET 0 -40.9639 0
      CHANNELS 3 Zrotation Xrotation Yrotation
      JOINT simLeftFoot
      {
        OFFSET 0 -40.9639 0
        CHANNELS 3 Zrotation Xrotation Yrotation
        End Site
        {
          OFFSET -0.50614 -9.67405 14.6709
        }
      }
    }
  }
}
MOTION
Frames:	14
Frame Time:	0.0333333
-209.472 85.1717 9.84864 -2.28852 -4.66136 11.754 -3.07308 20.1572 -17.3634 14.6878 -1.60172 -57.6211 5.91836 -0.418879 -10.5769 -21.3655 2.7037 4.82313 28.3494 -33.5417 28.7138 35.5334 30.5433 63.9221 -25.394 -37.8071 91.5637 -17.9548 -19.6238 0.67301 -26.6337 -22.5939 15.2369 13.9141 33.3306 -3.78754 15.1596 -12.6662 -9.61063 32.692 -19.3443 13.4336 -49.9736 59.7476 30.986 4.61175 -29.9997 5.07708 
-210.424 84.3902 8.70783 -1.74681 -5.52217 7.03339 -8.49577 21.161 -16.6133 4.20784 15.6295 -50.546 10.1244 -1.40233 -18.2173 -27.0173 25.8157 15.3923 28.8858 -34.1149 29.2454 26.6977 48.559 53.7123 -24.6787 -39.9175 96.1136 -17.0758 0.1593 12.4561 -27.7821 -24.9543 12.0815 13.813 33.1717 -3.80657 18.31 -9.71971 -2.93905 31.7869 -17.7052 11.9166 -49.4411 59.5537 30.5279 4.6542 -32.1528 7.41837 
-212.092 84.0542 7.95844 -3.08631 -8.15194 7.25388 -11.8843 24.2649 -14.1289 1.52781 34.7018 -41.7606 15.2704 -3.46056 -27.8847 -22.324 32.1333 17.8551 29.2668 -34.3774 28.9234 35.7754 59.5195 32.6831 -25.9753 -35.0523 85.9635 -10.6163 11.8907 9.88364 -27.6059 -24.0284 4.96089 15.1162 35.5916 -4.528 14.952 -6.78883 -4.05163 32.9351 -16.2441 8.60133 -47.1753 58.6775 28.5803 5.27009 -33.3671 9.75792 
-214.96 84.5834 8.96472 -4.00951 -6.47115 13.8058 -17.3766 20.467 -11.5887 -11.0712 46.8027 -23.4957 21.4413 -7.43609 -40.3778 -26.1742 46.4244 27.5942 27.9103 -34.2983 20.4113 71.1602 53.6145 -7.82064 -25.447 -24.9526 67.0871 3.85353 8.99078 -1.33587 -29.2472 -21.8663 -4.12583 15.7595 36.7365 -4.8992 14.4092 -7.54624 -9.72474 34.4336 -20.6914 5.32552 -43.1785 56.9195 25.1334 1.00799 -31.4348 6.98733 
-218.555 85.7938 11.1223 -5.16037 -3.87548 24.2696 -24.8878 17.5223 -6.4408 -19.4584 44.2473 -4.06757 26.0567 -11.9045 -50.997 -23.8733 54.8853 28.5782 24.7386 -39.1936 3.89082 86.4074 33.3831 -29.2395 -21.7592 -15.7762 49.8204 7.09863 7.01561 -9.51817 -30.6784 -18.832 -15.0756 17.1815 39.1504 -5.73021 13.3576 -10.3529 -9.69216 35.0142 -27.3892 0.767554 -37.4597 53.8076 20.3418 -1.07766 -26.8237 3.52151 
-221.639 87.3627 14.1659 -6.44286 -2.49365 37.2872 -31.746 16.9925 0.227721 -10.5338 36.0738 -1.38479 27.3025 -13.4247 -54.1933 -23.9678 52.1694 30.9323 14.1368 -43.4245 -17.9629 89.298 19.3628 -45.6058 -20.0847 -13.1783 44.4794 6.33241 -7.27257 -12.271 -30.9783 -12.2375 -25.6121 18.0574 40.5429 -6.23792 12.0468 -13.2658 -6.47342 35.7366 -32.4808 -0.139264 -30.3479 48.6604 14.6679 -3.35128 -20.0366 -4.2701 
-223.197 88.4586 16.9535 -8.83923 -0.864437 50.6368 -35.6979 16.6079 4.6974 -0.102997 23.3261 -3.20127 28.0914 -14.4792 -56.3255 -21.0724 45.7532 29.8525 3.21521 -45.801 -31.3929 78.0675 11.9952 -52.3139 -19.8411 -12.8886 43.8484 9.61621 3.92689 -12.2263 -29.172 -6.50138 -27.536 17.7513 40.0277 -5.97447 12.5951 -16.2649 -1.06789 35.1038 -38.7362 -0.122693 -24.8435 43.3606 10.5707 -5.57009 -13.2003 -12.5701 
-223.883 88.3687 18.2581 -10.2953 -0.160971 60.8479 -37.4755 17.6033 10.4408 5.0965 10.6162 -6.99408 29.2573 -16.1949 -59.6733 -14.8001 49.9056 24.3028 -6.24599 -45.6059 -38.7283 52.097 8.96541 -45.989 -17.1528 -9.58719 36.4005 4.912 9.04981 -15.8 -26.4207 -3.88199 -17.4881 17.8278 40.1277 -5.86701 7.19417 -20.123 -4.28481 32.453 -43.789 -1.95922 -22.1357 40.2013 8.66903 -7.87608 -9.30977 -17.1431 
-224.429 87.0845 18.5113 -8.63732 -0.621155 66.8858 -37.4618 19.0437 16.0978 1.4212 3.77006 -7.62965 31.093 -19.4032 -65.6282 -12.5683 51.1284 21.8326 -13.641 -40.4123 -41.8458 19.8343 4.08182 -25.1958 -9.24956 -3.38285 18.3563 -4.69578 14.9846 -10.5274 -25.3598 -1.23083 -7.21069 19.2589 42.3382 -6.69519 4.81725 -23.083 -9.27155 30.5892 -46.2367 -2.74516 -23.4516 41.7768 9.54837 -8.66764 -9.89524 -17.1847 
-225.05 85.04 17.7454 -5.40965 -2.60624 67.5908 -32.6701 18.732 20.1579 -6.85519 7.74846 -2.15797 32.2929 -22.0084 -70.2613 -11.684 45.4534 19.6859 -20.9083 -34.2129 -45.8163 -8.42189 -2.14902 1.8878 -0.374278 -0.0742662 0.715885 -2.1473 16.6594 -6.72107 -26.4651 -0.075925 -4.55221 21.8422 45.9464 -8.43588 6.17201 -26.4279 -10.7775 33.9711 -46.1168 1.10721 -28.1022 46.6604 12.8859 -7.82371 -12.3311 -9.17736 
-225.588 82.9447 16.579 -1.29658 -4.17235 63.2118 -30.1318 17.536 27.1257 -14.0152 19.602 2.01292 32.6127 -22.8086 -71.6595 -10.4387 40.5268 15.0118 -12.9295 -37.2443 -44.4546 -21.8297 -4.18417 19.0401 -1.76562 -0.393811 3.39498 -0.202862 10.6205 -4.18251 -29.8829 -0.767106 -5.28032 24.4164 49.0892 -10.2881 1.78727 -28.5365 -15.5632 39.174 -41.6246 7.91676 -33.0063 50.7913 16.6514 -6.22553 -12.7798 2.12444 
-225.209 81.2831 16.1617 9.22611e-05 -3.82398 59.926 -29.6188 14.2778 32.2522 -19.171 30.2443 4.92382 33.1238 -24.2209 -74.1076 -12.3448 29.7703 8.38299 -8.55611 -33.4221 -44.2513 -13.4715 -11.625 27.8583 -8.48221 -2.96801 16.7613 -1.07184 9.70078 -8.52502 -32.6206 -1.01815 -6.45825 23.169 47.6137 -9.40028 7.9869 -32.3997 -15.9443 43.8767 -38.3235 15.9161 -37.3782 53.7752 20.1617 -4.93008 -11.1274 7.85241 
-223.811 80.1987 16.0685 1.51231 -3.65928 63.281 -29.3479 13.8364 30.2876 -21.6894 35.8596 5.85022 33.3673 -24.9695 -75.3975 -19.3341 19.4298 4.20155 -5.57933 -27.524 -43.2209 4.04604 -9.50533 27.1875 -16.5729 -8.98331 34.9301 -5.27657 11.7133 -13.7753 -31.7116 4.65493 -1.88776 20.3747 43.9252 -7.41612 13.5386 -36.5987 -16.9771 42.043 -39.4573 14.3177 -42.3229 56.5299 24.2824 -4.12353 -12.9306 6.73598 
-221.796 80.2948 15.7698 1.31334 -3.2696 69.596 -29.2085 14.3192 25.6262 -21.486 35.2091 1.99927 32.8116 -23.3368 -72.5775 -21.4018 15.1254 1.06198 -0.727891 -22.7961 -42.4763 24.231 -8.78492 15.3009 -22.5166 -17.1446 52.5182 -15.61 14.2414 -16.9777 -29.627 11.0657 -3.43113 17.1961 38.9914 -5.32044 12.8906 -35.9788 -21.611 38.6769 -42.9639 11.555 -43.7458 57.2204 25.5106 -2.19651 -13.1847 4.10423 
